<?xml version="1.0" encoding="UTF-8" standalone="no"?>
<svg viewBox="0 0 562.5 562.5" height="562.5" width="562.5" xmlns="http://www.w3.org/2000/svg">
  <g transform="matrix(1.25,0,0,-1.25,0,562.5)">
    <path
         style="fill:#441188;fill-opacity:1;fill-rule:evenodd;stroke:none"
         d="m 410.8631,145.698 c 43.7972,43.7973 43.7972,114.8067 0,158.604 0,0 -106.5611,106.5611 -106.5611,106.5611 -43.7973,43.7972 -114.8067,43.7972 -158.604,0 0,0 -106.56109,-106.5611 -106.56109,-106.5611 -43.797259,-43.7973 -43.797259,-114.8067 0,-158.604 0,0 106.56109,-106.56109 106.56109,-106.56109 43.7973,-43.797259 114.8067,-43.797259 158.604,0 0,0 106.5611,106.56109 106.5611,106.56109 z" />
    <path
  style="fill:#ffdd55;fill-opacity:1;stroke:none"
  d="M 225,105 C 225,105 90,205 90,290 C 90,360 180,370 225,300 C 270,370 360,360 360,290 C 360,205 225,105 225,105 z" />
  </g>
</svg>